<svg xmlns="http://www.w3.org/2000/svg" viewBox="0 0 64 64" width="64" height="64">
  <defs>
    <linearGradient id="g" x1="0" y1="0" x2="1" y2="1">
      <stop offset="0%" stop-color="#7c3aed"/>
      <stop offset="100%" stop-color="#4f46e5"/>
    </linearGradient>
  </defs>
  <rect width="64" height="64" rx="16" fill="url(#g)"/>
  <path fill="#fff" d="M32 13.5c1.1 4.9 3.1 8.4 6 10.6 2.4 1.8 5.3 2.9 8.9 3.4-4.4.7-7.7 2.1-10.1 4.3-2.6 2.4-4.2 5.8-4.8 10.2-.7-4.6-2.4-8.1-5.2-10.5-2.4-2-5.5-3.3-9.7-4 4.1-.6 7.3-1.9 9.6-3.9 2.6-2.2 4.4-5.6 5.3-10.1z"/>
  <circle cx="46" cy="45" r="4.5" fill="#fff" opacity=".85"/>
  <circle cx="19" cy="44" r="3" fill="#fff" opacity=".6"/>
</svg>
